<?xml version="1.0" encoding="UTF-8"?>
<svg width="1200pt" height="1200pt" version="1.1" viewBox="0 0 1200 1200" xmlns="http://www.w3.org/2000/svg">
 <g>
  <path d="m19.566 671.43 96.996 97.859-1.0547 235.11v0.17969c0 1.8125 1.3906 3.5039 1.5586 5.2695 0.22656 2.4258 0.78125 4.9688 1.2461 7.3086 0.23828 1.0781 0.9375 2.0508 1.2227 3.0859 0.78125 2.9531 1.6562 5.9531 2.832 8.7109 0.22656 0.49219 0.60156 0.89844 0.80469 1.3555 1.4648 3.2266 3.1094 6.3477 5.0508 9.2891 0.12109 0.17969 0.26562 0.27734 0.38281 0.46875 2.1836 3.1445 4.5703 6.1211 7.2734 8.7734 0.51562 0.52734 1.1641 0.88672 1.7031 1.3789 2.3984 2.2305 4.8242 4.3906 7.5469 6.2031 2.1719 1.4648 4.5859 2.5547 6.9258 3.7812 1.2461 0.625 2.3867 1.3906 3.6602 1.9336 7.5352 3.2266 15.793 5.0273 24.516 5.0156 0.17969 0 0.32422-0.058594 0.49219-0.058594l87.109 0.058594c34.586 0 62.641-27.898 62.605-62.461 0-34.668-28.066-62.449-62.734-62.449h-24.863l-0.011719-195.31c0.26562-5.207 0.046875-10.512-0.98438-15.66-2.8906-18.059-13.332-33.551-28.152-42.973l-62.746-62.746 70.68-70.789c7.1758-6.3945 12.996-14.281 16.621-23.363 1.2734-2.9883 2.0898-6.1094 2.8672-9.2539 0.13281-0.55078 0.33594-1.0664 0.49219-1.6211 1.1289-5.2812 1.4883-12.059 1.2461-17.461l0.046876-198.61h24.863c34.656 0 62.711-26.605 62.711-61.273 0.023438-34.559-28.02-61.957-62.594-61.957l-87.238 0.40625c-0.12109 0-0.26562 0.13281-0.34766 0.13281-8.7109-0.011718-16.98 1.8594-24.516 5.0508-1.4297 0.625-2.7344 1.5703-4.1055 2.293-2.1953 1.1172-4.4531 2.1602-6.4805 3.5039-2.7227 1.8477-5.1719 3.9961-7.5586 6.2148-0.52734 0.50391-1.1875 0.89844-1.7031 1.4141-2.6406 2.6523-5.0273 5.5664-7.1758 8.6523-0.15625 0.23828-0.33594 0.38281-0.50391 0.60156-1.8945 2.8438-3.4688 5.9297-4.9453 9.0703-0.25391 0.55078-0.625 1.043-0.82813 1.5977-1.1523 2.6406-1.8594 5.4609-2.5938 8.2695-0.28906 1.1992-0.81641 2.3164-1.0664 3.5039-0.46875 2.2812-1.5117 4.6562-1.7539 7.0312-0.17969 1.8594-1.5859 3.6367-1.5859 5.5547v0.20312l1.043 236.9-97.336 97.98c-12.551 12.574-18.348 29.113-18.012 45.551-0.51953 16.703 5.6758 33.574 18.395 46.273z"/>
  <path d="m1180.5 576.98-96.996-97.859 1.043-235.11v-0.15625c0-1.8125-1.3789-3.5039-1.5352-5.2695-0.25391-2.4492-0.78125-4.9688-1.2461-7.3086-0.25391-1.0781-0.9375-2.0625-1.2344-3.1211-0.78125-2.9531-1.6562-5.9141-2.8203-8.6758-0.23828-0.49219-0.60156-0.89844-0.80469-1.3906-1.4648-3.2148-3.1094-6.3477-5.0508-9.2656-0.12109-0.16797-0.26562-0.28906-0.38281-0.45703-2.1836-3.1445-4.5703-6.1094-7.2617-8.7852-0.51562-0.50391-1.1641-0.88672-1.7031-1.3906-2.3984-2.2305-4.8359-4.3906-7.5469-6.2148-2.1719-1.4766-4.5977-2.5781-6.9258-3.7695-1.2617-0.625-2.375-1.4297-3.6719-1.9805-7.5352-3.2031-15.793-4.9922-24.516-4.9805-0.19141 0-0.32422 0.046875-0.48047 0.046875l-87.121-0.046875c-34.586 0-62.641 27.91-62.617 62.461 0 34.668 28.066 62.449 62.746 62.449h24.84l0.035156 195.31c-0.27734 5.207-0.058593 10.512 0.98438 15.66 2.8906 18.059 13.32 33.539 28.152 42.973l62.746 62.746-70.68 70.801c-7.1875 6.3828-13.008 14.27-16.621 23.352-1.2734 2.9883-2.1016 6.1094-2.8672 9.2656-0.15625 0.53906-0.34766 1.0664-0.49219 1.6211-1.1289 5.2578-1.5 12.047-1.2461 17.461l-0.046875 198.6h-24.863c-34.656 0-62.711 26.605-62.711 61.246-0.023438 34.559 28.02 61.969 62.605 61.969l87.238-0.40625c0.13281 0 0.25391-0.13281 0.34766-0.13281 8.7227 0.011719 16.992-1.8477 24.527-5.0391 1.4023-0.66016 2.7344-1.5703 4.1055-2.3164 2.1953-1.1289 4.4531-2.1602 6.4805-3.4922 2.7227-1.8594 5.1484-4.0078 7.5586-6.2266 0.52734-0.50391 1.1875-0.89844 1.7031-1.4023 2.6523-2.6641 5.0391-5.5781 7.1875-8.6641 0.14453-0.22656 0.3125-0.38281 0.49219-0.60156 1.8945-2.8672 3.4688-5.9297 4.9336-9.0703 0.25391-0.55078 0.625-1.043 0.81641-1.5977 1.1523-2.6523 1.8711-5.4609 2.5938-8.2695 0.30078-1.1992 0.81641-2.3164 1.0781-3.5156 0.46875-2.2695 1.5117-4.6445 1.7383-7.0195 0.19141-1.8594 1.6094-3.6484 1.6094-5.5547v-0.20312l-1.0781-236.91 97.367-97.934c12.551-12.59 18.324-29.125 18.012-45.602 0.45703-16.66-5.7148-33.508-18.422-46.227z"/>
  <path d="m827.05 39.227c-9.3828-7.5977-21.047-13.703-33.984-13.703h-0.46875l-249.2-23.555c-0.035156 0-0.074219-1.9688-0.10938-1.9688h-0.13281-0.023438c-0.30078 0-0.625 1.9688-0.9375 1.9453-3.9844-0.27734-7.8711 0.69531-11.711 1.1406-1.6562 0.17969-3.2148 1.1992-4.8359 1.5234-2.3984 0.46875-4.8594 1.0547-7.1758 1.8008-2.6172 0.83984-5.0508 2.1953-7.5117 3.3711-1.1641 0.5625-2.4258 0.99609-3.5508 1.6328-2.9883 1.6562-5.7461 3.707-8.4258 5.8203-0.45703 0.37109-1.0078 0.66016-1.4766 1.0195-2.7969 2.3398-5.3281 5.0156-7.7031 7.8125-0.23828 0.26562-0.50391 0.49219-0.73047 0.75781-2.1836 2.6992-3.9961 5.6406-5.7461 8.6875-0.26562 0.50391-0.68359 0.92578-0.9375 1.4297-1.4141 2.6875-2.4492 5.5938-3.4688 8.5078-0.33594 0.99609-0.86328 1.8945-1.1875 2.9141-0.67187 2.2695-0.9375 4.7148-1.332 7.1055-0.28906 1.7891-0.82812 3.4805-0.99609 5.3281l-85.512 931.08c-2.543 17.172 1.7383 35.27 13.766 49.559l106.01 126.1c1.1406 1.332 2.4727 2.375 3.707 3.5898 1.4023 2.1953 2.6875 4.4531 4.4141 6.4688 22.188 26.508 61.766 29.988 88.262 7.7031l136.19-114.57c2.9531-2.4844 5.543-5.2812 7.9219-8.1836 0.10938-0.12109 0.25391-0.22656 0.3125-0.3125 8.5195-10.453 13.129-23.125 13.824-36.086l65.566-713.33c0.99609-3.6016 1.8008-7.3203 2.1133-11.184 0.30078-3.5156 0.16797-6.9609-0.13281-10.367l18.203-197.89c1.8828-21.512-7.3945-41.48-22.992-54.141zm-232.5 94.875 124.89 10.848-7.6797 83.352-124.91-10.812zm50.508 820.92-124.96-10.824 55.32-601.96 124.91 10.836z"/>
 </g>
</svg>
